<mxfile host="app.diagrams.net" modified="2024-03-25T13:36:30.161Z" agent="Mozilla/5.0 (Macintosh; Intel Mac OS X 10_15_7) AppleWebKit/537.36 (KHTML, like Gecko) Chrome/123.0.0.0 Safari/537.36" version="24.1.0" etag="fgN1eeFFT_ty8CZBG_Ja" type="github">
  <diagram name="第 1 页" id="Kw0R5dBu7gz8dSFKARI3">
    <mxGraphModel>
      <root>
        <mxCell id="0" />
        <mxCell id="1" parent="0" />
      </root>
    </mxGraphModel>
  </diagram>
</mxfile>
